HIERARCHY
ROOT Pelvis
{
	OFFSET -0.217368 -24.078917 2.858379
	CHANNELS 6 Xposition Yposition Zposition Zrotation Yrotation Xrotation 
	JOINT Left_hip
	{
		OFFSET 5.858135 -8.228005 -1.766408
		CHANNELS 3 Zrotation Yrotation Xrotation
		JOINT Left_knee
		{
			OFFSET 4.345143 -38.646942 0.803700
			CHANNELS 3 Zrotation Yrotation Xrotation
			JOINT Left_ankle
			{
				OFFSET -1.479033 -42.687447 -3.742800
				CHANNELS 3 Zrotation Yrotation Xrotation
				JOINT Left_foot
				{
					OFFSET 4.105436 -6.028605 12.204244
					CHANNELS 3 Zrotation Yrotation Xrotation
					End Site
					{
						OFFSET 0.000000 0.000000 0.000000
					}
				}
			}
		}
	}
	JOINT Right_hip
	{
		OFFSET -6.030973 -9.051328 -1.354253
		CHANNELS 3 Zrotation Yrotation Xrotation
		JOINT Right_knee
		{
			OFFSET -4.325663 -38.368790 -0.484304
			CHANNELS 3 Zrotation Yrotation Xrotation
			JOINT Right_ankle
			{
				OFFSET 1.905555 -42.004566 -3.456167
				CHANNELS 3 Zrotation Yrotation Xrotation
				JOINT Right_foot
				{
					OFFSET -3.483987 -6.210554 13.032330
					CHANNELS 3 Zrotation Yrotation Xrotation
					End Site
					{
						OFFSET 0.000000 0.000000 0.000000
					}
				}
			}
		}
	}
	JOINT Spine1
	{
		OFFSET 0.443945 12.440353 -3.838522
		CHANNELS 3 Zrotation Yrotation Xrotation
		JOINT Spine2
		{
			OFFSET 0.448844 13.795640 2.682033
			CHANNELS 3 Zrotation Yrotation Xrotation
			JOINT Spine3
			{
				OFFSET -0.226460 5.603239 0.285504
				CHANNELS 3 Zrotation Yrotation Xrotation
				JOINT Neck
				{
					OFFSET -1.339018 21.163553 -3.346758
					CHANNELS 3 Zrotation Yrotation Xrotation
					JOINT Head
					{
						OFFSET 1.011321 8.893734 5.040987
						CHANNELS 3 Zrotation Yrotation Xrotation
						End Site
						{
							OFFSET 0.000000 0.000000 0.000000
						}
					}
				}
				JOINT Left_collar
				{
					OFFSET 7.170247 11.399971 -1.889817
					CHANNELS 3 Zrotation Yrotation Xrotation
					JOINT Left_shoulder
					{
						OFFSET 12.292140 4.520507 -1.904600
						CHANNELS 3 Zrotation Yrotation Xrotation
						JOINT Left_elbow
						{
							OFFSET 25.533188 -1.564902 -2.294648
							CHANNELS 3 Zrotation Yrotation Xrotation
							JOINT Left_wrist
							{
								OFFSET 26.570929 1.269810 -0.737473
								CHANNELS 3 Zrotation Yrotation Xrotation
								JOINT Left_palm
								{
									OFFSET 8.669054 -1.063602 -1.559429
									CHANNELS 3 Zrotation Yrotation Xrotation
									End Site
									{
										OFFSET 0.000000 0.000000 0.000000
									}
								}
							}
						}
					}
				}
				JOINT Right_collar
				{
					OFFSET -8.295364 11.247234 -2.370738
					CHANNELS 3 Zrotation Yrotation Xrotation
					JOINT Right_shoulder
					{
						OFFSET -11.322830 4.685326 -0.847207
						CHANNELS 3 Zrotation Yrotation Xrotation
						JOINT Right_elbow
						{
							OFFSET -26.012751 -1.436928 -3.126872
							CHANNELS 3 Zrotation Yrotation Xrotation
							JOINT Right_wrist
							{
								OFFSET -26.910841 0.679372 -0.602677
								CHANNELS 3 Zrotation Yrotation Xrotation
								JOINT Right_palm
								{
									OFFSET -8.875370 -0.865157 -1.010708
									CHANNELS 3 Zrotation Yrotation Xrotation
									End Site
									{
										OFFSET 0.000000 0.000000 0.000000
									}
								}
							}
						}
					}
				}
			}
		}
	}
}
MOTION
Frames: 10
Frame Time: 0.016667
-0.217368 44.486877 2.858379 1.351461 2.097116 33.382783 28.363873 15.498832 -83.404881 -43.679095 27.411264 54.640304 17.831078 37.326626 -7.735514 0.000000 0.000000 0.000000 -36.890029 -19.847736 -78.848771 51.352373 -26.962828 45.002244 -16.079659 -38.203416 -2.302073 0.000000 0.000000 0.000000 1.067457 -4.347898 73.946420 -1.203858 0.967480 -27.698807 -1.847233 1.988605 18.170437 2.949461 -1.270990 -9.236783 0.000000 0.000000 0.000000 10.049452 -42.413568 12.036391 14.851230 -33.791797 -4.855146 26.897904 -11.137423 -2.118774 0.000000 0.000000 0.000000 0.000000 0.000000 0.000000 -7.501892 39.317817 12.025509 -12.914814 33.127981 -4.693378 -26.144795 9.232018 -1.275160 0.000000 0.000000 0.000000 0.000000 0.000000 0.000000 
-0.256585 42.900406 3.012128 1.202948 2.694891 35.380737 31.139009 17.892737 -83.281967 -47.518641 28.280707 51.112918 19.404536 40.980621 -8.834882 0.000000 0.000000 0.000000 -42.863060 -23.356403 -75.810317 63.249519 -27.072543 33.526818 -17.909641 -41.607085 -1.446448 0.000000 0.000000 0.000000 1.941519 -4.975907 73.484560 -0.727617 0.957523 -32.876586 -3.999639 1.481909 22.186468 2.962227 -1.674356 -5.680638 0.000000 0.000000 0.000000 13.701896 -43.076159 11.018653 15.237093 -32.724792 -4.710438 24.574375 -10.357327 -1.753567 0.000000 0.000000 0.000000 0.000000 0.000000 0.000000 -9.169356 42.873710 12.617264 -14.209465 34.862946 -5.338541 -22.394820 3.173824 -0.033689 0.000000 0.000000 0.000000 0.000000 0.000000 0.000000 
-0.262770 40.835579 3.099187 0.912386 2.763388 34.480401 34.859698 20.934626 -82.676718 -53.937357 31.414552 48.972685 20.877283 41.896807 -4.825327 0.000000 0.000000 0.000000 -43.720183 -24.481225 -76.885226 66.187236 -28.200805 32.881260 -20.170759 -44.363222 1.636508 0.000000 0.000000 0.000000 2.468589 -5.383118 73.549855 -2.682997 1.274644 -31.256224 -2.424327 -0.247726 18.566644 2.024226 -0.862236 -7.101683 0.000000 0.000000 0.000000 11.767987 -43.269190 11.713272 12.685968 -36.042124 -4.822683 25.761995 -6.476883 -1.113442 0.000000 0.000000 0.000000 0.000000 0.000000 0.000000 -9.726899 42.627661 12.354801 -11.876728 37.731391 -5.298260 -24.869904 3.195039 -0.052488 0.000000 0.000000 0.000000 0.000000 0.000000 0.000000 
-0.289114 39.987846 3.142154 1.228209 2.513116 35.361212 34.820996 21.507926 -84.329153 -54.776751 32.433267 49.736356 22.187179 43.995357 -4.343181 0.000000 0.000000 0.000000 -46.743265 -26.503420 -76.130106 71.324645 -28.433798 29.319199 -22.745475 -46.410659 6.132896 0.000000 0.000000 0.000000 2.920371 -5.618177 72.497271 -3.256801 1.389565 -28.792688 -2.662154 0.074953 16.777692 4.589525 -2.880391 -5.373401 0.000000 0.000000 0.000000 12.445292 -45.545532 12.109725 16.870040 -34.385927 -5.419439 22.957621 -5.608177 -0.819160 0.000000 0.000000 0.000000 0.000000 0.000000 0.000000 -9.421984 42.906447 12.542298 -13.727715 35.897533 -5.429365 -24.527091 1.201166 0.319913 0.000000 0.000000 0.000000 0.000000 0.000000 0.000000 
-0.302349 38.838638 3.221268 1.255475 1.939456 34.639400 35.703029 22.556554 -85.002595 -58.473890 34.386462 48.811603 23.409925 45.211723 -2.614077 0.000000 0.000000 0.000000 -46.135449 -27.146183 -78.511587 71.917453 -30.503256 31.783011 -23.276539 -46.876571 6.858402 0.000000 0.000000 0.000000 2.678730 -5.575346 73.868306 -4.341143 1.579158 -30.469839 -2.452942 -1.062308 16.680448 5.094300 -3.166022 -5.925626 0.000000 0.000000 0.000000 12.320878 -44.050137 11.741813 16.483052 -36.985090 -5.929932 22.855931 -4.987424 -0.711973 0.000000 0.000000 0.000000 0.000000 0.000000 0.000000 -8.225561 41.763773 12.580651 -14.362974 38.051627 -6.042788 -24.747695 1.952809 0.181500 0.000000 0.000000 0.000000 0.000000 0.000000 0.000000 
-0.321414 37.673248 3.331546 1.245193 1.449168 34.875603 36.192998 23.277038 -85.700840 -60.607181 35.741677 48.641981 25.058992 47.538833 -1.921843 0.000000 0.000000 0.000000 -45.944734 -28.170397 -80.968464 71.936015 -31.912268 33.718031 -23.105716 -47.139790 5.855078 0.000000 0.000000 0.000000 3.157148 -5.752866 72.097750 -4.316824 1.525623 -33.731866 -3.709189 -0.148092 19.720785 7.390198 -4.488323 -7.812250 0.000000 0.000000 0.000000 12.098013 -44.604115 11.971846 15.567062 -37.795992 -5.885328 22.625314 -5.541964 -0.793277 0.000000 0.000000 0.000000 0.000000 0.000000 0.000000 -5.738908 41.778687 13.400109 -14.236110 39.169513 -6.243769 -24.315031 1.990338 0.172422 0.000000 0.000000 0.000000 0.000000 0.000000 0.000000 
-0.339563 36.530090 3.439991 0.771494 1.136308 33.263906 36.018408 23.637201 -86.998893 -59.025853 37.904644 53.625250 23.878864 45.479448 -1.620296 0.000000 0.000000 0.000000 -45.309227 -27.740564 -81.186614 72.255614 -33.993496 36.312104 -21.960079 -46.351118 3.810642 0.000000 0.000000 0.000000 2.129312 -5.061151 72.865262 -3.528477 1.385923 -36.025330 -3.501531 0.930486 21.296239 7.396674 -4.166808 -9.775619 0.000000 0.000000 0.000000 11.353816 -43.894485 12.029475 14.980707 -39.174114 -6.036940 22.252147 -5.605662 -0.786768 0.000000 0.000000 0.000000 0.000000 0.000000 0.000000 -4.735176 41.624055 13.676256 -14.379620 39.913269 -6.444473 -23.864262 2.282066 0.117878 0.000000 0.000000 0.000000 0.000000 0.000000 0.000000 
-0.356405 35.639832 3.465039 0.731727 1.434781 32.410682 34.730731 23.097355 -88.697533 -55.899492 38.774842 58.563111 23.427009 45.354564 -2.838582 0.000000 0.000000 0.000000 -44.556051 -27.388091 -81.785351 71.650175 -35.646925 39.056315 -21.957035 -47.202682 2.274835 0.000000 0.000000 0.000000 2.409562 -5.184439 71.952329 -3.562279 1.382183 -37.035679 -3.587436 0.804436 22.220044 6.663117 -3.397762 -11.603130 0.000000 0.000000 0.000000 10.666622 -42.994628 12.002838 13.313972 -41.091478 -5.980115 22.651766 -6.041148 -0.876067 0.000000 0.000000 0.000000 0.000000 0.000000 0.000000 -3.806156 41.419588 13.907652 -13.767884 41.259023 -6.545189 -24.240062 2.826496 0.018935 0.000000 0.000000 0.000000 0.000000 0.000000 0.000000 
-0.364570 34.947815 3.435168 0.552846 1.172381 30.739315 33.185294 22.230293 -90.333860 -51.234352 39.622352 65.769997 22.140940 43.101916 -2.664414 0.000000 0.000000 0.000000 -43.248828 -26.515240 -82.304682 69.073975 -37.004500 43.177440 -20.962390 -46.574857 0.267438 0.000000 0.000000 0.000000 2.153210 -5.056849 72.625092 -4.107122 1.435001 -38.205430 -3.441060 0.634853 23.242274 6.900508 -3.537726 -11.685623 0.000000 0.000000 0.000000 10.197423 -42.317311 11.959702 12.501296 -42.282562 -5.980894 23.417341 -5.975386 -0.902601 0.000000 0.000000 0.000000 0.000000 0.000000 0.000000 -3.737782 41.436115 13.936185 -14.144638 41.998486 -6.821321 -24.163757 1.707562 0.223284 0.000000 0.000000 0.000000 0.000000 0.000000 0.000000 
-0.382870 34.460716 3.388579 0.309565 1.281504 29.399244 31.516644 21.262507 -92.211223 -45.743786 39.279255 72.971716 20.688848 40.586676 -2.626227 0.000000 0.000000 0.000000 -41.763798 -25.631381 -83.178455 66.944630 -38.562214 47.350131 -20.924929 -46.521749 0.239796 0.000000 0.000000 0.000000 2.127944 -5.103138 73.328707 -3.541027 1.361578 -39.290583 -2.899789 1.637201 24.277864 6.191143 -2.693827 -14.391709 0.000000 0.000000 0.000000 10.304715 -41.942949 11.815398 11.348710 -43.552397 -5.871959 24.155896 -5.527738 -0.859413 0.000000 0.000000 0.000000 0.000000 0.000000 0.000000 -5.463186 40.729403 13.125855 -13.505205 43.011610 -6.830412 -24.052874 0.516775 0.438370 0.000000 0.000000 0.000000 0.000000 0.000000 0.000000 
